<?xml version="1.0" encoding="UTF-8" standalone="no"?>
<svg
   xmlns:dc="http://purl.org/dc/elements/1.1/"
   xmlns:cc="http://creativecommons.org/ns#"
   xmlns:rdf="http://www.w3.org/1999/02/22-rdf-syntax-ns#"
   xmlns:svg="http://www.w3.org/2000/svg"
   xmlns="http://www.w3.org/2000/svg"
   xmlns:sodipodi="http://sodipodi.sourceforge.net/DTD/sodipodi-0.dtd"
   xmlns:inkscape="http://www.inkscape.org/namespaces/inkscape"
   height="1000"
   width="875"
   version="1.1"
   id="svg4"
   sodipodi:docname="trash.svg"
   inkscape:version="1.0.1 (3bc2e813f5, 2020-09-07)">
  <metadata
     id="metadata10">
    <rdf:RDF>
      <cc:Work
         rdf:about="">
        <dc:format>image/svg+xml</dc:format>
        <dc:type
           rdf:resource="http://purl.org/dc/dcmitype/StillImage" />
      </cc:Work>
    </rdf:RDF>
  </metadata>
  <defs
     id="defs8" />
  <sodipodi:namedview
     pagecolor="#ffffff"
     bordercolor="#666666"
     borderopacity="1"
     objecttolerance="10"
     gridtolerance="10"
     guidetolerance="10"
     inkscape:pageopacity="0"
     inkscape:pageshadow="2"
     inkscape:window-width="1920"
     inkscape:window-height="1013"
     id="namedview6"
     showgrid="false"
     inkscape:zoom="0.59538391"
     inkscape:cx="460.21792"
     inkscape:cy="549.32743"
     inkscape:window-x="-9"
     inkscape:window-y="-9"
     inkscape:window-maximized="1"
     inkscape:current-layer="svg4" />
  <path
     d="M0 281.296l0 -68.355q1.953 -37.107 29.295 -62.496t64.449 -25.389l93.744 0l0 -31.248q0 -39.06 27.342 -66.402t66.402 -27.342l312.48 0q39.06 0 66.402 27.342t27.342 66.402l0 31.248l93.744 0q37.107 0 64.449 25.389t29.295 62.496l0 68.355q0 25.389 -18.553 43.943t-43.943 18.553l0 531.216q0 52.731 -36.13 88.862t-88.862 36.13l-499.968 0q-52.731 0 -88.862 -36.13t-36.13 -88.862l0 -531.216q-25.389 0 -43.943 -18.553t-18.553 -43.943zm62.496 0l749.952 0l0 -62.496q0 -13.671 -8.789 -22.46t-22.46 -8.789l-687.456 0q-13.671 0 -22.46 8.789t-8.789 22.46l0 62.496zm62.496 593.712q0 25.389 18.553 43.943t43.943 18.553l499.968 0q25.389 0 43.943 -18.553t18.553 -43.943l0 -531.216l-624.96 0l0 531.216zm62.496 -31.248l0 -406.224q0 -13.671 8.789 -22.46t22.46 -8.789l62.496 0q13.671 0 22.46 8.789t8.789 22.46l0 406.224q0 13.671 -8.789 22.46t-22.46 8.789l-62.496 0q-13.671 0 -22.46 -8.789t-8.789 -22.46zm31.248 0l62.496 0l0 -406.224l-62.496 0l0 406.224zm31.248 -718.704l374.976 0l0 -31.248q0 -13.671 -8.789 -22.46t-22.46 -8.789l-312.48 0q-13.671 0 -22.46 8.789t-8.789 22.46l0 31.248zm124.992 718.704l0 -406.224q0 -13.671 8.789 -22.46t22.46 -8.789l62.496 0q13.671 0 22.46 8.789t8.789 22.46l0 406.224q0 13.671 -8.789 22.46t-22.46 8.789l-62.496 0q-13.671 0 -22.46 -8.789t-8.789 -22.46zm31.248 0l62.496 0l0 -406.224l-62.496 0l0 406.224zm156.24 0l0 -406.224q0 -13.671 8.789 -22.46t22.46 -8.789l62.496 0q13.671 0 22.46 8.789t8.789 22.46l0 406.224q0 13.671 -8.789 22.46t-22.46 8.789l-62.496 0q-13.671 0 -22.46 -8.789t-8.789 -22.46zm31.248 0l62.496 0l0 -406.224l-62.496 0l0 406.224z"
     id="path2"
     style="fill:#ffffff" />
</svg>
